<svg xmlns="http://www.w3.org/2000/svg" width="100%" height="100%" fill="none" viewBox="0 0 61 61"><path fill="#090000" d="M30.601 54.937c13.605 0 24.633-11.029 24.633-24.633 0-13.605-11.029-24.633-24.633-24.633-13.605 0-24.633 11.028-24.633 24.633 0 13.604 11.028 24.633 24.633 24.633Z"/><path fill="#fff" stroke="gray" stroke-linecap="round" stroke-linejoin="round" stroke-miterlimit="10" stroke-width="2.875" d="M30.601 53.49c12.805 0 23.186-10.38 23.186-23.186 0-12.805-10.38-23.186-23.186-23.186-12.805 0-23.185 10.38-23.185 23.186 0 12.805 10.38 23.186 23.185 23.186Z"/><path fill="#000" fill-rule="evenodd" d="m18.04 52.089.985.093.173.535.987.041.202.525.988-.011.228.514.986-.063.255.501.981-.113.282.486.975-.164.305.471.965-.215.33.454.952-.266.353.437.937-.315.376.418.918-.364.398.397.899-.411.417.376.876-.458.436.354.851-.503.455.33.822-.546.472.306.793-.59.487.282.762-.63.5.255.727-.668.514.228.69-.706.526.201.653-.741.535.174.613-.775.543.146.572-.805.55.117.53-.835.555.088.485-.86.559.058.44-.885.56.03.393-.907h.562l.344-.926.561-.03.296-.944.559-.058.245-.957.556-.087.195-.969.55-.117.144-.978.543-.145.093-.984.534-.174.041-.987.525-.201-.01-.988.513-.229-.061-.986.5-.255-.114-.982.487-.28-.165-.975.472-.306-.216-.964.455-.33-.266-.951.437-.355-.315-.936.418-.376-.364-.919.397-.397-.41-.899.375-.417-.458-.875.354-.438-.503-.85.33-.455-.546-.823.305-.471-.589-.794.282-.486-.63-.761.255-.501-.67-.727.23-.514-.707-.691.202-.525-.74-.654.172-.534-.774-.614.146-.543-.806-.571.117-.55-.834-.53.088-.555-.862-.486.06-.558-.885-.44.029-.56-.907-.394v-.561l-.926-.345-.03-.56-.942-.296-.059-.56-.956-.245-.089-.555-.969-.196-.116-.55-.978-.143-.145-.543-.983-.093-.174-.535-.988-.042-.201-.524-.988.01-.228-.513-.986.062-.256-.5-.981.113-.281-.487-.974.165-.307-.471-.964.215-.33-.454-.953.265-.353-.437-.937.316-.375-.418-.919.364-.397-.397-.898.411-.418-.376-.877.457-.436-.353-.85.503-.455-.33-.823.546-.471-.306-.793.59-.487-.282-.761.63-.501-.255-.728.668-.513-.228-.691.705-.525-.2-.654.74-.534-.173-.614.775-.542-.146-.573.805-.55-.117-.53.835-.554-.088-.485.86-.559-.058-.44.885-.56-.03-.393.907h-.562l-.345.926-.56.03-.296.943-.56.058-.245.958-.555.087-.196.969-.55.117-.144.978-.542.145-.093.983-.535.174-.041.987-.525.202.01.988-.513.228.062.987-.5.255.113.981-.487.281.165.975-.471.305.215.965-.454.33.265.951-.437.355.316.936-.418.376.364.92-.397.396.41.898-.375.418.457.875-.353.437.503.85-.33.456.546.823-.306.47.589.794-.28.487.629.761-.255.501.669.727-.23.514.707.69-.202.526.742.654-.174.534.774.614-.145.542.806.572-.118.55.835.53-.088.555.86.485-.058.559.884.439-.028.561.906.393v.562l.927.344.029.561.942.296.06.56.957.245.087.555.97.195.116.55.977.144.146.543Zm.825-.396-.936-1.057 1.125-.3.19-.33-1.643.44.16.602-.878-1.103 1.138-.242.207-.318-1.664.353.13.612-.82-1.15 1.149-.182.223-.307-1.68.266.098.617-.76-1.19 1.158-.122.239-.295-1.691.177.064.62-.695-1.227 1.162-.06.254-.283-1.698.09.032.622-.63-1.262h1.163l.269-.269h-1.7l-.001.625-.563-1.295 1.161.061.283-.254-1.699-.089-.033.623-.494-1.321 1.157.122.295-.24-1.691-.177-.065.62-.426-1.346 1.15.183.307-.224-1.68-.266-.098.616-.354-1.366 1.138.242.319-.206-1.664-.354-.13.61-.282-1.383 1.124.301.329-.19-1.643-.44-.161.603-.21-1.395 1.107.36.338-.173-1.617-.526-.194.594-.136-1.405 1.087.417.347-.154-1.588-.61-.224.583-.062-1.41 1.063.473.354-.136-1.553-.692-.254.57.011-1.411 1.037.528.361-.117-1.515-.772-.283.556.085-1.409 1.007.582.367-.098-1.473-.85-.311.539.158-1.402.976.634.371-.08-1.426-.925-.34.523.232-1.392.942.684.375-.06-1.376-.999-.367.505.304-1.379.905.733.378-.04-1.322-1.07-.392.485.375-1.36.865.778.38-.02-1.264-1.137-.417.462.446-1.338.823.823h.38l-1.203-1.203-.441.442.516-1.314.778.865.38.02-1.138-1.264-.464.417.584-1.284.733.904.377.04-1.07-1.322-.485.392.65-1.252.685.942.375.06-1-1.376-.504.366.715-1.216.634.976.371.078-.926-1.426-.524.34.779-1.177.581 1.007.367.099-.85-1.473-.54.312.838-1.135.529 1.036.36.118-.772-1.515-.556.283.898-1.09.473 1.063.354.136-.692-1.553-.57.254.953-1.042.417 1.086.347.155-.61-1.588-.582.224 1.006-.99.36 1.107.338.172-.525-1.617-.594.193 1.056-.937.302 1.124.329.19-.44-1.642-.604.161 1.104-.88.242 1.139.319.206-.354-1.663-.61.13 1.148-.82.182 1.149.307.223-.265-1.68-.617.098 1.19-.76.122 1.158.295.24-.178-1.692-.621.065 1.228-.696.061 1.162.283.254-.09-1.698-.622.032 1.262-.63v1.163l.268.269v-1.7h-.623l1.293-.564-.06 1.162.253.282.09-1.698-.624-.032 1.322-.496-.122 1.157.24.295.177-1.691-.62-.065 1.345-.426-.182 1.15.223.307.266-1.68-.617-.098 1.367-.354-.242 1.138.207.319.354-1.664-.61-.13 1.382-.282-.3 1.124.189.329.44-1.643-.603-.16 1.396-.211-.36 1.107.173.338.525-1.618-.594-.192 1.406-.137-.417 1.087.154.347.61-1.588-.582-.223 1.409-.063-.473 1.063.136.354.691-1.553-.569-.254 1.41.011-.527 1.037.117.361.772-1.515-.557-.284 1.41.086-.582 1.007.098.367.85-1.472-.54-.313 1.402.16-.633.975.079.372.926-1.427-.523-.34 1.392.232-.684.942.059.375 1-1.376-.506-.367 1.379.305-.732.904.04.378 1.07-1.322-.485-.393 1.36.376-.779.865.02.38 1.138-1.264-.464-.418 1.34.447-.823.823v.38l1.202-1.203-.44-.442 1.312.517-.864.779-.02.379 1.264-1.138-.418-.464 1.285.585-.904.732-.04.377 1.321-1.07-.393-.485 1.253.651-.941.684-.06.375 1.376-1-.367-.504 1.217.715-.976.634-.079.371 1.426-.926-.34-.523 1.178.778-1.008.582-.098.366 1.473-.85-.312-.54 1.135.838-1.037.529-.117.36 1.515-.771-.283-.556 1.09.897-1.063.473-.137.355 1.554-.692-.254-.57 1.041.952-1.086.418-.154.346 1.587-.61-.223-.582.99 1.006-1.107.36-.172.338 1.617-.525-.193-.593.936 1.056-1.124.3-.19.33 1.643-.44-.162-.603.88 1.103-1.138.243-.207.318 1.663-.353-.13-.612.821 1.15-1.15.182-.222.307 1.68-.266-.099-.616.76 1.19-1.157.12-.24.296 1.692-.178-.065-.62.696 1.227-1.162.061-.255.283 1.699-.09-.033-.623.63 1.263H46.94l-.268.268h1.7v-.624l.564 1.295-1.162-.061-.282.254 1.698.089.033-.623.495 1.32-1.157-.12-.296.238 1.692.178.065-.621.425 1.347-1.149-.183-.307.224 1.68.265.097-.616.354 1.366-1.138-.241-.318.206 1.664.354.13-.61.282 1.382-1.124-.301-.329.19 1.642.44.161-.602.21 1.395-1.106-.36-.338.173 1.617.526.193-.594.136 1.405-1.086-.417-.347.154 1.588.61.222-.583.064 1.41-1.063-.473-.355.136 1.554.692.254-.57-.011 1.411-1.037-.528-.361.117 1.515.772.283-.556-.085 1.409-1.008-.582-.367.098 1.473.85.312-.54-.159 1.402-.975-.633-.372.079 1.426.926.34-.523-.232 1.392-.941-.684-.375.06 1.376.999.366-.505-.304 1.378-.904-.732-.378.04 1.322 1.07.393-.485-.377 1.36-.864-.778-.38.02 1.264 1.137.418-.463-.447 1.339-.823-.823h-.38l1.203 1.202.44-.44-.515 1.312-.779-.864-.38-.02 1.139 1.264.463-.418-.584 1.285-.732-.904-.378-.04 1.07 1.322.485-.392-.65 1.251-.684-.941-.375-.06 1 1.376.504-.367-.716 1.217-.633-.976-.372-.079.927 1.426.523-.34-.778 1.178-.582-1.008-.367-.098.85 1.473.541-.313-.839 1.136-.528-1.036-.361-.118.772 1.515.556-.282-.897 1.089-.473-1.063-.355-.136.692 1.553.57-.254-.953 1.042-.417-1.087-.346-.154.609 1.587.582-.223-1.005.99-.36-1.107-.339-.172.526 1.617.593-.192-1.056.935-.3-1.123-.33-.19.44 1.642.603-.162-1.104.88L50 42.884l-.318-.207.353 1.664.61-.13-1.148.82-.182-1.149-.307-.223.266 1.68.617-.098-1.19.76-.122-1.158-.295-.24.178 1.692.62-.065-1.228.696-.06-1.162-.283-.255.09 1.699.621-.032-1.261.63v-1.164l-.269-.268v1.7h.624l-1.294.564.06-1.162-.253-.282-.089 1.698.623.033-1.322.495.122-1.157-.239-.295-.178 1.691.62.066-1.345.425.182-1.15-.223-.307-.266 1.68.617.098-1.367.354.242-1.138-.207-.319-.353 1.664.61.13-1.383.282.302-1.124-.19-.329-.44 1.643.603.16-1.396.211.359-1.107-.172-.338-.526 1.617.594.193-1.405.136.417-1.086-.155-.347-.609 1.588.582.223-1.41.063.474-1.063-.136-.354-.692 1.553.57.254-1.411-.012.528-1.036-.117-.361-.772 1.515.556.284-1.41-.086.583-1.008-.099-.367-.85 1.473.54.312-1.402-.158.634-.976-.08-.372-.925 1.427.523.34-1.392-.232.684-.942-.06-.375-1 1.376.506.366-1.379-.304.733-.904-.04-.378-1.07 1.322.484.393-1.36-.376.779-.865-.02-.38-1.138 1.264.464.418-1.339-.447.823-.823v-.38l-1.203 1.203.441.441-1.313-.516.865-.779.02-.38-1.264 1.139.417.464-1.284-.585.904-.732.04-.377-1.322 1.07.393.484-1.253-.65.942-.684.06-.375-1.377 1 .367.504-1.216-.715.975-.634.08-.371-1.427.926.34.523-1.177-.778 1.007-.582.099-.367-1.473.85.31.54-1.133-.838 1.036-.528.118-.361-1.515.772.282.556-1.09-.897 1.064-.473.136-.355-1.554.692.254.57-1.041-.953 1.086-.416.155-.347-1.588.609.223.583-.989-1.007 1.106-.36.173-.337-1.617.525.192.594Z" clip-rule="evenodd"/><path fill="#000" d="M30.6 51.36c11.637 0 21.07-9.427 21.07-21.056 0-11.629-9.433-21.056-21.07-21.056-11.636 0-21.069 9.427-21.069 21.056 0 11.629 9.433 21.056 21.07 21.056Z"/><path fill="#090000" fill-rule="evenodd" d="M30.6 9.248c11.638 0 21.07 9.427 21.07 21.056 0 11.629-42.139 11.629-42.139 0s9.433-21.056 21.07-21.056Z" clip-rule="evenodd"/><path fill="#fff" d="m32.27 13.848 1.603.253 1.406-.81-1.603-.254-1.406.811Zm1.089.039c-.207-.011-.434-.07-.45-.156v-.002c-.017-.087.174-.223.364-.307.323-.143.42-.006.45.157.03.162-.011.325-.364.308Zm.832-.635c.207.01.434.07.45.156v.002c.016.086-.174.222-.364.307-.323.142-.42.005-.45-.157-.03-.163.011-.325.364-.308ZM32.387 11.303l1.095 1.505 1.797.482-1.095-1.504-1.797-.483Zm.851.914c-.159-.177-.295-.408-.238-.492l.002-.001c.057-.083.321-.04.543.046.378.146.345.336.238.492-.107.156-.273.255-.545-.045Zm1.19.16c.159.177.295.408.238.491l-.001.002c-.057.083-.322.039-.544-.046-.378-.147-.345-.336-.238-.492.108-.157.273-.255.545.045ZM34.41 14.193l1.556.46 1.5-.62-1.557-.46-1.5.62Zm1.074.18c-.204-.038-.421-.126-.426-.213v-.002c-.005-.088.202-.198.4-.257.34-.1.418.05.426.214.01.165-.053.321-.4.258Zm.907-.52c.204.037.422.125.426.213v.002c.005.088-.202.197-.4.257-.34.099-.418-.05-.426-.215-.009-.165.053-.32.4-.258Z"/><path fill="#fff" d="m34.857 11.685.89 1.635 1.718.713-.889-1.635-1.719-.713Zm.725 1.017c-.135-.196-.24-.444-.172-.518l.002-.002c.067-.075.324.003.533.117.355.194.298.378.171.519-.127.14-.303.217-.534-.116Zm1.158.314c.135.196.24.443.172.518l-.001.001c-.067.075-.324-.003-.533-.116-.356-.195-.298-.379-.172-.52.127-.14.304-.216.534.117ZM36.485 14.814l1.483.659 1.568-.42-1.483-.659-1.568.42Zm1.041.319c-.197-.065-.4-.18-.394-.268v-.002c.008-.087.227-.17.432-.202.349-.054.407.104.394.268-.013.165-.095.312-.431.204Zm.969-.398c.197.064.4.18.394.267v.002c-.007.088-.227.17-.431.202-.35.054-.407-.103-.394-.268.013-.165.094-.311.43-.203Z"/><path fill="#fff" d="m37.257 12.386.668 1.737 1.61.93-.667-1.736-1.611-.931Zm.586 1.102c-.108-.212-.18-.47-.103-.536l.001-.001c.077-.066.321.046.514.185.327.24.246.414.102.537-.144.123-.33.176-.514-.185Zm1.107.463c.108.212.18.47.103.536l-.002.001c-.076.066-.32-.045-.513-.185-.327-.24-.246-.414-.102-.537.144-.123.329-.175.514.185ZM38.462 15.7l1.384.847 1.61-.21-1.385-.848-1.609.211Zm.991.452c-.187-.09-.374-.23-.356-.316v-.002c.019-.086.247-.139.454-.144.353-.008.39.155.356.317-.034.162-.134.296-.454.145Zm1.012-.268c.187.09.374.23.356.317v.001c-.019.086-.247.14-.454.145-.353.008-.39-.156-.356-.318.034-.161.134-.296.454-.145ZM39.544 13.394l.436 1.809 1.476 1.133-.436-1.809-1.476-1.133Zm.437 1.17c-.079-.225-.116-.49-.032-.546h.002c.085-.056.312.086.485.25.293.28.19.442.031.546-.159.103-.35.13-.486-.25Zm1.038.602c.08.225.117.49.032.545l-.002.002c-.084.055-.312-.088-.485-.251-.293-.28-.19-.442-.03-.546.158-.103.348-.13.485.25ZM40.307 16.837l1.261 1.02 1.623.002-1.262-1.021h-1.622Zm.923.578c-.174-.113-.341-.277-.312-.36v-.002c.03-.083.263-.105.47-.084.35.038.366.205.31.36-.054.157-.171.277-.468.086Zm1.038-.134c.174.113.34.277.311.36v.002c-.03.083-.263.105-.469.084-.351-.038-.366-.205-.311-.361.055-.156.172-.276.469-.085ZM41.68 14.692l.196 1.85 1.316 1.316-.196-1.85-1.315-1.316Zm.281 1.216c-.05-.232-.052-.5.04-.544l.001-.001c.091-.043.299.127.448.312.254.316.131.463-.04.545-.171.082-.363.084-.449-.312Zm.95.734c.05.232.052.5-.04.544l-.001.001c-.091.044-.298-.127-.448-.312-.254-.316-.131-.463.04-.545.171-.081.363-.084.45.312ZM41.987 18.205l1.117 1.177 1.61.212-1.118-1.176-1.61-.213Zm.84.693c-.158-.134-.302-.32-.262-.397v-.002c.04-.078.275-.07.476-.022.344.084.337.251.262.398-.075.148-.207.252-.476.023Zm1.046.003c.158.135.302.32.262.398v.002c-.04.078-.274.07-.476.022-.343-.084-.337-.252-.262-.399.075-.147.207-.251.476-.023ZM43.63 16.257l-.049 1.86 1.133 1.477.047-1.86-1.132-1.477Zm.118 1.243c-.018-.237.015-.503.11-.535h.003c.095-.031.279.165.403.367.21.347.07.477-.111.536-.18.058-.371.036-.405-.368Zm.847.851c.018.237-.015.504-.11.535h-.003c-.096.032-.279-.164-.403-.367-.21-.346-.07-.477.111-.535.18-.059.371-.036.405.367ZM43.474 19.78l.955 1.313 1.567.42-.955-1.311-1.567-.421Zm.742.798c-.138-.155-.257-.356-.207-.429v-.001c.05-.073.282-.034.475.04.33.128.3.293.207.43-.093.135-.237.221-.475-.04Zm1.038.14c.138.153.257.355.207.428v.001c-.05.073-.281.034-.475-.04-.33-.128-.3-.293-.207-.43.093-.136.237-.221.475.04Z"/><path fill="#fff" d="m45.356 18.064-.29 1.838.93 1.612.29-1.838-.93-1.612Zm-.044 1.248c.013-.238.08-.498.18-.516h.001c.1-.019.255.2.352.417.164.37.007.481-.18.516-.186.035-.372-.013-.353-.417Zm.728.954c-.012.238-.08.497-.179.516h-.002c-.099.018-.255-.2-.352-.417-.163-.37-.006-.482.18-.516.187-.035.373.012.353.417ZM44.743 21.537l.775 1.426 1.5.621-.776-1.425-1.499-.622Zm.632.887c-.117-.171-.209-.387-.15-.452l.001-.001c.06-.066.283.003.465.102.31.17.26.33.15.452-.11.123-.265.19-.466-.101Zm1.01.274c.118.17.21.386.15.452v.001c-.06.065-.284-.003-.466-.102-.31-.17-.26-.33-.15-.452.111-.123.265-.19.466.1Z"/><path fill="#fff" d="m46.834 20.08-.528 1.785.712 1.72.527-1.785-.711-1.72Zm-.207 1.232c.043-.234.144-.483.245-.488h.002c.1-.006.227.232.294.46.114.388-.056.478-.245.488-.19.01-.368-.061-.296-.46Zm.597 1.041c-.043.234-.144.483-.245.488h-.002c-.1.005-.227-.232-.294-.46-.114-.388.056-.478.245-.488.19-.01.369.061.296.46ZM45.772 23.444l.582 1.515 1.405.812-.582-1.515-1.405-.812Zm.51.962c-.093-.185-.156-.41-.089-.468l.002-.001c.066-.057.28.04.447.162.285.208.215.36.09.468-.126.107-.288.153-.45-.161Zm.967.403c.094.185.156.41.09.468h-.002c-.067.058-.28-.04-.448-.16-.285-.21-.215-.362-.089-.47.126-.106.287-.152.449.162Z"/><path fill="#fff" d="m48.035 22.273-.756 1.7.48 1.798.757-1.7-.481-1.798Zm-.366 1.194c.074-.227.206-.46.306-.452h.003c.1.008.194.26.232.494.062.4-.119.467-.308.452-.189-.015-.357-.109-.233-.494Zm.456 1.11c-.073.226-.206.46-.306.452h-.002c-.1-.008-.195-.26-.232-.495-.062-.4.118-.466.307-.451.19.014.357.108.233.494ZM46.543 25.469l.38 1.578 1.287.988-.38-1.578-1.287-.988Zm.38 1.02c-.068-.196-.1-.428-.027-.475l.002-.001c.073-.048.272.076.422.218.256.244.166.386.028.476-.14.09-.305.114-.424-.218Zm.906.526c.069.195.102.427.028.475l-.002.001c-.074.048-.272-.076-.423-.218-.255-.245-.166-.386-.027-.476.139-.09.305-.115.424.218Z"/><path fill="#fff" d="m48.94 24.603-.972 1.587.242 1.845.971-1.587-.242-1.845Zm-.52 1.136c.103-.215.265-.43.364-.408h.002c.098.021.159.283.165.52.01.405-.178.448-.364.408-.185-.04-.34-.154-.166-.52Zm.308 1.16c-.102.215-.264.429-.363.408h-.002c-.098-.021-.159-.283-.165-.52-.01-.406.178-.448.364-.409.185.04.34.155.166.521ZM47.044 27.577l.17 1.614 1.147 1.148-.17-1.614-1.148-1.148Zm.244 1.061c-.043-.203-.045-.437.034-.475h.002c.08-.038.26.11.39.271.222.276.115.405-.035.476-.149.07-.316.073-.391-.272Zm.829.64c.043.203.044.437-.035.475h-.002c-.079.038-.26-.11-.39-.272-.222-.275-.114-.404.035-.475.15-.071.317-.074.392.272ZM49.532 27.031l-1.17 1.447-.001 1.86 1.17-1.446v-1.86Zm-.662 1.059c.13-.2.318-.391.413-.357h.002c.095.034.12.301.096.538-.044.402-.235.42-.414.357-.179-.064-.317-.198-.097-.538Zm.153 1.19c-.13.2-.318.39-.413.357h-.002c-.095-.034-.12-.301-.096-.538.044-.402.235-.42.414-.357.178.064.316.198.097.538ZM47.264 29.732l-.041 1.623.987 1.287.041-1.622-.987-1.288Zm.104 1.084c-.016-.206.012-.439.096-.466h.002c.084-.028.243.143.352.32.183.302.06.416-.097.467-.157.05-.324.031-.353-.32Zm.738.743c.016.206-.012.439-.096.466h-.002c-.083.028-.243-.143-.352-.32-.183-.302-.06-.416.097-.467.157-.051.324-.032.353.32ZM49.803 29.516l-1.35 1.282-.243 1.845 1.349-1.282.244-1.845Zm-.795.963c.155-.18.366-.346.456-.3h.002c.09.047.08.315.025.546-.096.394-.288.386-.457.3-.169-.086-.288-.237-.026-.546Zm-.003 1.2c-.155.181-.367.346-.456.3h-.002c-.09-.046-.08-.314-.026-.546.096-.393.288-.386.457-.3.17.087.288.237.027.546ZM47.202 31.898l-.253 1.603.81 1.406.253-1.603-.81-1.406Zm-.039 1.088c.011-.207.07-.433.156-.45h.002c.087-.016.223.175.307.364.143.323.006.42-.157.45-.162.03-.325-.01-.308-.364Zm.635.833c-.011.207-.07.433-.156.45h-.002c-.086.016-.222-.175-.307-.364-.142-.323-.005-.42.157-.45.163-.03.325.01.308.364ZM49.746 32.015l-1.504 1.095-.483 1.797 1.505-1.095.482-1.797Zm-.913.851c.177-.159.408-.295.491-.238l.002.001c.083.057.039.322-.046.544-.147.378-.336.345-.492.238-.157-.108-.255-.273.045-.545Zm-.16 1.19c-.177.159-.408.295-.492.238l-.001-.001c-.083-.057-.04-.322.046-.544.146-.378.336-.345.492-.238.156.107.255.272-.045.545ZM46.857 34.037l-.46 1.556.62 1.5.46-1.556-.62-1.5Zm-.18 1.074c.038-.204.125-.42.213-.425h.002c.088-.005.198.202.257.4.1.34-.05.417-.214.426-.166.009-.321-.053-.258-.4Zm.52.908c-.037.204-.125.421-.213.426h-.002c-.088.004-.198-.202-.257-.401-.099-.34.05-.417.215-.426.165-.008.32.054.258.401ZM49.365 34.485l-1.635.89-.713 1.718 1.635-.889.713-1.719Zm-1.017.725c.196-.135.443-.24.518-.172l.002.001c.075.068-.004.325-.117.534-.195.355-.378.298-.52.171-.14-.127-.216-.303.117-.534Zm-.314 1.158c-.196.135-.443.24-.518.172l-.002-.001c-.075-.068.004-.324.117-.534.194-.355.378-.297.519-.17.14.126.217.303-.116.533ZM46.236 36.113l-.66 1.483.42 1.568.66-1.483-.42-1.568Zm-.319 1.041c.064-.197.18-.4.267-.394h.002c.088.007.17.227.203.431.053.35-.104.407-.269.394-.164-.013-.31-.094-.203-.43Zm.398.968c-.064.198-.18.401-.267.395h-.002c-.088-.008-.17-.227-.203-.432-.054-.349.104-.407.268-.394.165.013.312.095.204.431ZM48.664 36.885l-1.737.668-.93 1.61 1.736-.667.931-1.611Zm-1.103.585c.212-.107.471-.18.536-.102l.002.001c.065.077-.046.321-.185.514-.24.326-.414.246-.537.102-.123-.144-.176-.33.184-.515Zm-.462 1.108c-.212.108-.47.18-.536.103l-.002-.002c-.065-.077.046-.32.186-.513.239-.327.413-.246.536-.102.124.144.176.329-.184.514ZM45.35 38.09l-.848 1.384.212 1.61.847-1.385-.212-1.609Zm-.453.99c.09-.186.23-.373.317-.355h.002c.086.019.139.247.144.454.008.353-.155.39-.317.356-.162-.035-.296-.135-.145-.454Zm.269 1.013c-.09.187-.23.374-.317.355h-.002c-.086-.018-.138-.246-.144-.454-.008-.353.156-.39.317-.355.162.034.296.134.146.453Z"/><path fill="#fff" d="m47.656 39.172-1.81.435-1.133 1.476 1.81-.435 1.133-1.476Zm-1.17.437c.224-.08.49-.117.545-.032l.001.002c.055.084-.087.312-.25.484-.28.293-.443.19-.546.031-.103-.158-.131-.349.25-.485Zm-.603 1.038c-.224.079-.49.116-.545.031l-.001-.001c-.055-.085.087-.313.25-.485.28-.293.443-.19.546-.031.104.158.131.349-.25.486ZM44.213 39.934l-1.02 1.262-.002 1.623 1.02-1.262.002-1.623Zm-.578.924c.113-.174.277-.341.36-.312h.002c.083.03.105.263.084.47-.038.35-.205.366-.361.31-.156-.054-.276-.171-.085-.468Zm.134 1.038c-.113.174-.277.34-.36.311h-.002c-.083-.03-.105-.263-.084-.469.038-.351.205-.366.361-.311.156.055.276.172.085.469ZM46.358 41.308l-1.85.196-1.317 1.315 1.85-.196 1.317-1.315Zm-1.216.28c.232-.049.5-.051.544.04l.001.002c.043.09-.127.298-.312.448-.316.254-.463.13-.545-.04-.082-.171-.084-.364.312-.45Zm-.734.95c-.233.05-.501.052-.544-.039l-.001-.002c-.044-.09.127-.298.312-.448.315-.254.463-.13.545.04.081.172.084.364-.312.45ZM42.844 41.615l-1.176 1.117-.212 1.61 1.176-1.118.212-1.61Zm-.693.84c.135-.158.32-.302.398-.262h.002c.078.04.07.275.022.476-.084.343-.251.337-.399.262-.147-.075-.25-.207-.023-.476ZM42.15 43.5c-.135.158-.32.302-.398.262h-.002c-.078-.04-.07-.275-.022-.476.084-.343.251-.337.399-.262.147.075.251.207.023.476Z"/><path fill="#fff" d="m44.792 43.257-1.86-.048-1.476 1.132 1.86.048 1.476-1.132Zm-1.242.119c.237-.019.503.014.534.11l.001.002c.031.096-.165.28-.368.404-.346.21-.476.069-.535-.112-.058-.18-.036-.37.368-.404Zm-.851.846c-.238.018-.504-.014-.535-.11v-.002c-.032-.096.164-.28.367-.404.346-.21.476-.069.535.112.058.18.036.37-.367.404ZM41.27 43.102l-1.313.955-.42 1.567 1.311-.955.421-1.567Zm-.798.742c.155-.138.356-.257.429-.208l.001.002c.073.05.034.28-.04.474-.128.33-.293.3-.43.207-.135-.094-.221-.237.04-.475Zm-.14 1.038c-.153.138-.355.257-.428.207h-.001c-.073-.05-.034-.282.04-.475.128-.33.293-.301.43-.207.136.093.221.237-.04.475Z"/><path fill="#fff" d="m42.986 44.984-1.838-.29-1.612.93 1.838.29 1.612-.93Zm-1.248-.044c.238.013.498.08.516.18v.001c.019.1-.2.255-.417.352-.37.164-.481.007-.516-.18-.035-.186.013-.373.417-.353Zm-.954.728c-.237-.013-.497-.08-.516-.179v-.002c-.019-.1.2-.255.417-.352.37-.164.482-.006.516.18.035.186-.012.373-.417.353ZM39.513 44.37l-1.426.776-.622 1.499 1.426-.775.622-1.5Zm-.887.633c.17-.117.386-.209.452-.15l.001.001c.066.059-.003.283-.102.465-.17.31-.33.26-.452.15-.123-.111-.19-.265.1-.466Zm-.274 1.01c-.17.117-.386.209-.452.15l-.001-.001c-.066-.06.003-.283.102-.465.17-.31.33-.26.452-.15.123.11.19.265-.1.466Z"/><path fill="#fff" d="m40.97 46.461-1.785-.527-1.72.711 1.785.527 1.72-.711Zm-1.232-.207c.234.044.483.145.488.245v.002c.005.101-.232.227-.46.295-.389.114-.478-.057-.488-.246-.01-.19.061-.368.46-.296Zm-1.041.598c-.234-.044-.483-.144-.488-.245v-.002c-.006-.101.231-.227.46-.295.388-.114.477.057.487.246.01.19-.06.368-.46.296ZM37.606 45.4l-1.515.582-.812 1.405 1.515-.582.812-1.405Zm-.962.51c.185-.094.41-.156.468-.09l.001.002c.057.067-.04.28-.162.448-.208.285-.36.215-.468.089-.107-.126-.153-.287.161-.449Zm-.403.966c-.185.094-.41.157-.468.09v-.002c-.058-.066.04-.28.16-.447.21-.285.362-.215.469-.09.107.126.153.288-.161.45Z"/><path fill="#fff" d="m38.777 47.662-1.7-.756-1.798.481 1.7.756 1.798-.48Zm-1.194-.365c.227.073.46.205.452.306v.002c-.008.1-.26.195-.494.232-.4.062-.467-.118-.452-.307.015-.19.109-.357.494-.233Zm-1.11.456c-.226-.074-.46-.206-.452-.307v-.002c.008-.1.26-.195.495-.232.4-.062.466.119.451.308-.014.188-.108.356-.494.233ZM35.58 46.17l-1.577.38-.988 1.288 1.577-.38.989-1.287Zm-1.02.382c.196-.07.428-.102.476-.028l.001.001c.048.074-.076.273-.219.423-.244.256-.386.166-.475.027-.09-.138-.115-.304.218-.423Zm-.525.905c-.196.069-.428.101-.476.027v-.001c-.048-.074.076-.272.218-.423.244-.255.386-.166.476-.027.09.139.114.304-.218.424Z"/><path fill="#fff" d="m36.447 48.567-1.587-.972-1.845.242 1.587.972 1.845-.242Zm-1.136-.519c.214.103.429.265.408.363v.002c-.022.099-.283.16-.52.166-.406.009-.448-.179-.409-.364.04-.185.155-.34.52-.167Zm-1.16.308c-.215-.103-.43-.264-.408-.363v-.002c.021-.099.283-.16.52-.166.405-.009.448.179.408.364-.04.186-.154.34-.52.167ZM33.473 46.67l-1.614.172-1.148 1.147 1.614-.171 1.148-1.147Zm-1.061.245c.203-.043.437-.045.474.035l.001.001c.038.08-.11.26-.272.391-.275.221-.404.114-.475-.035-.071-.15-.074-.317.272-.392Zm-.64.829c-.203.043-.437.045-.475-.034v-.002c-.038-.08.11-.26.271-.39.276-.222.404-.115.476.034.07.15.073.317-.272.392Z"/><path fill="#fff" d="m34.019 49.16-1.447-1.17-1.861-.002 1.447 1.17 1.86.002Zm-1.06-.663c.2.13.392.318.358.413v.002c-.034.095-.301.121-.538.096-.403-.043-.42-.235-.357-.413.063-.18.197-.317.538-.098Zm-1.19.154c-.199-.13-.39-.318-.357-.413l.001-.002c.034-.095.301-.121.538-.097.402.044.42.236.356.414-.063.18-.197.317-.538.098ZM27.746 13.037l-1.603.253 1.406.811 1.603-.253-1.406-.81Zm-.046.542c.03-.163.127-.3.45-.157.19.084.38.22.364.307v.002c-.017.086-.243.145-.45.156-.353.017-.394-.146-.364-.308Zm-.105-.02c-.03.163-.127.3-.45.158-.19-.085-.38-.22-.364-.307v-.002c.017-.086.243-.145.45-.156.353-.017.394.145.364.308ZM27.238 11.786l-1.095 1.504 1.797-.482 1.095-1.505-1.797.483Zm.401.476c-.107-.156-.14-.346.238-.492.222-.085.486-.13.544-.046v.002c.058.083-.078.314-.237.49-.272.3-.438.202-.545.046Zm-.1.07c.107.156.14.345-.238.492-.222.085-.487.129-.544.046v-.002c-.058-.083.078-.314.237-.491.272-.3.438-.202.545-.046ZM25.513 13.572l-1.556.46 1.5.62 1.556-.46-1.5-.62Zm.025.543c.009-.165.087-.313.426-.214.198.059.405.169.4.257v.002c-.004.087-.221.175-.425.213-.348.063-.41-.093-.401-.258Zm-.106-.005c-.009.165-.087.314-.426.215-.199-.06-.405-.17-.4-.257v-.002c.004-.088.221-.176.425-.214.348-.063.41.093.4.258Z"/><path fill="#fff" d="m24.846 12.398-.889 1.635 1.719-.713.889-1.635-1.72.713Zm.46.42c-.127-.141-.184-.325.171-.52.21-.113.466-.191.534-.116l.001.002c.067.075-.037.322-.172.518-.23.333-.407.257-.534.116Zm-.09.082c.127.14.184.324-.172.519-.209.113-.465.191-.533.116l-.001-.001c-.068-.075.037-.322.172-.518.23-.333.407-.257.534-.116ZM23.37 14.394l-1.484.66 1.568.419 1.483-.66-1.568-.419Zm.095.535c-.014-.165.044-.322.393-.268.205.033.425.115.431.203v.001c.008.088-.196.203-.394.268-.336.108-.418-.039-.43-.204Zm-.107.009c.013.165-.044.322-.393.268-.205-.032-.425-.114-.431-.202v-.002c-.008-.088.196-.203.393-.267.337-.108.419.038.431.203ZM22.554 13.317l-.668 1.737 1.611-.931.668-1.737-1.61.93Zm.511.356c-.144-.123-.225-.297.102-.537.193-.14.437-.25.514-.185l.001.001c.077.066.005.324-.102.536-.186.36-.37.308-.515.185Zm-.079.093c.144.123.225.298-.102.537-.192.14-.437.25-.513.185h-.002c-.077-.066-.005-.325.103-.537.185-.36.37-.308.514-.185ZM21.35 15.49l-1.383.846 1.609.211 1.384-.847-1.61-.21Zm.165.517c-.034-.162.003-.325.356-.317.207.005.435.058.454.144v.002c.018.086-.169.227-.356.316-.32.151-.42.017-.454-.145Zm-.104.022c.035.162-.002.326-.355.318-.208-.006-.436-.059-.454-.145v-.001c-.019-.086.168-.227.355-.317.32-.15.42-.016.454.145Z"/><path fill="#fff" d="m20.402 14.527-.435 1.81 1.476-1.134.435-1.81-1.476 1.134Zm.553.287c-.158-.104-.261-.266.032-.546.172-.164.4-.306.485-.25h.001c.085.055.047.321-.032.545-.136.382-.327.354-.486.25Zm-.066.102c.16.104.262.266-.03.546-.173.163-.401.306-.486.25h-.001c-.085-.055-.048-.321.032-.546.136-.38.326-.353.485-.25ZM19.493 16.838l-1.262 1.02h1.623l1.262-1.02h-1.623Zm.23.492c-.055-.156-.04-.323.311-.361.207-.021.44.001.47.084v.002c.03.082-.138.247-.312.36-.297.191-.414.07-.469-.085Zm-.1.036c.055.156.04.323-.311.36-.206.022-.44 0-.469-.083v-.002c-.03-.083.137-.247.311-.36.297-.191.414-.071.47.085ZM18.427 16.008l-.196 1.85 1.315-1.316.196-1.85-1.316 1.316Zm.585.212c-.17-.082-.294-.23-.04-.545.15-.185.357-.356.448-.312h.002c.091.044.089.313.04.545-.086.396-.279.394-.45.312Zm-.052.11c.171.082.294.23.04.545-.15.185-.356.356-.447.312h-.002c-.091-.044-.089-.313-.04-.545.086-.396.278-.393.45-.312ZM17.826 18.418l-1.117 1.176 1.608-.212 1.118-1.177-1.609.213Zm.293.457c-.075-.147-.082-.314.261-.398.202-.048.436-.056.476.022v.002c.04.078-.103.262-.26.397-.27.229-.402.125-.477-.023Zm-.095.05c.075.146.082.314-.26.398-.203.048-.437.056-.477-.022v-.002c-.04-.078.104-.263.261-.398.27-.228.401-.124.477.023Z"/><path fill="#fff" d="m16.661 17.734.048 1.86 1.132-1.477-.048-1.86-1.132 1.477Zm.609.134c-.18-.059-.322-.19-.112-.535.125-.203.308-.4.404-.368h.002c.096.032.129.298.11.535-.033.404-.224.426-.404.368Zm-.038.116c.18.058.322.189.112.535-.125.203-.308.399-.404.368l-.002-.001c-.096-.031-.129-.298-.11-.535.033-.403.224-.426.404-.367ZM16.38 20.202l-.954 1.312 1.567-.42.955-1.313-1.568.42Zm.35.415c-.093-.136-.122-.301.208-.43.193-.073.424-.112.474-.04l.001.002c.05.073-.069.274-.208.429-.237.261-.38.175-.474.04Zm-.087.06c.094.137.122.302-.207.43-.194.074-.425.113-.475.04v-.001c-.05-.073.068-.275.207-.429.237-.261.381-.176.475-.04ZM15.136 19.676l.29 1.838.93-1.612-.29-1.838-.93 1.612Zm.62.053c-.186-.035-.343-.145-.18-.516.097-.217.253-.436.352-.417h.003c.099.018.166.278.179.516.02.404-.167.451-.353.417Zm-.021.12c.186.035.343.145.18.516-.097.217-.253.436-.352.417h-.002c-.1-.018-.167-.279-.18-.516-.02-.404.167-.452.354-.417ZM15.18 22.159l-.775 1.425 1.499-.621.775-1.426-1.5.622Zm.401.366c-.11-.123-.16-.283.15-.452.182-.1.406-.168.465-.102v.001c.06.065-.032.28-.149.452-.201.29-.355.224-.466.101Zm-.079.072c.111.122.161.282-.149.452-.182.099-.406.167-.465.102l-.001-.001c-.06-.066.032-.281.15-.452.2-.29.355-.224.465-.101Z"/><path fill="#fff" d="m13.877 21.8.528 1.784.711-1.719-.527-1.784-.712 1.719Zm.623-.028c-.19-.01-.36-.1-.246-.488.068-.228.194-.465.295-.46h.002c.1.005.2.254.245.488.072.398-.107.47-.296.46Zm-.006.121c.19.01.36.1.246.488-.068.228-.194.465-.295.46h-.002c-.1-.005-.201-.254-.245-.488-.072-.399.107-.47.296-.46ZM14.245 24.256l-.582 1.515 1.405-.812.582-1.515-1.405.812Zm.446.31c-.126-.107-.196-.259.089-.467.168-.122.38-.22.447-.162l.002.001c.067.057.004.283-.09.468-.161.314-.323.268-.448.16Zm-.07.082c.127.107.197.26-.088.468-.168.122-.381.219-.448.162l-.001-.001c-.067-.058-.005-.283.09-.468.16-.314.322-.268.448-.161ZM12.907 24.07l.756 1.7.48-1.797-.755-1.7-.481 1.797Zm.613-.11c-.189.016-.37-.05-.307-.45.037-.236.131-.487.232-.495h.002c.1-.008.233.226.306.452.124.385-.044.479-.233.494Zm.01.122c.19-.014.37.052.308.452-.038.235-.132.486-.232.494h-.003c-.1.008-.232-.225-.306-.451-.124-.386.044-.48.233-.495ZM13.592 26.457l-.38 1.578 1.287-.988.38-1.578-1.287.988Zm.483.25c-.139-.09-.229-.232.027-.476.15-.142.349-.266.423-.218h.001c.074.048.041.28-.028.476-.119.332-.285.308-.423.218Zm-.058.09c.139.09.228.231-.027.475-.15.143-.35.267-.423.22l-.002-.002c-.073-.048-.04-.28.028-.475.12-.333.285-.308.424-.218Z"/><path fill="#fff" d="m12.241 26.448.972 1.587.242-1.845-.972-1.587-.242 1.845Zm.594-.189c-.185.04-.373-.003-.364-.407.007-.238.067-.5.166-.52l.002-.001c.099-.021.26.193.363.408.173.366.018.48-.167.52Zm.026.12c.185-.04.373.002.364.407-.007.238-.067.5-.166.52l-.002.001c-.099.021-.26-.193-.363-.408-.173-.366-.019-.481.167-.52ZM13.232 28.725l-.17 1.614 1.147-1.148.17-1.614-1.147 1.148Zm.511.185c-.15-.071-.257-.2-.035-.476.13-.16.311-.31.39-.272l.002.001c.08.038.078.272.035.475-.075.345-.243.343-.392.272Zm-.045.096c.149.071.256.2.035.475-.13.161-.312.31-.39.272h-.003c-.079-.038-.077-.273-.034-.475.075-.346.242-.343.392-.272ZM11.89 28.892l1.171 1.447v-1.861l-1.17-1.447v1.86Zm.565-.264c-.179.063-.37.045-.414-.357-.024-.237.001-.504.096-.538h.002c.095-.034.284.157.413.357.22.34.082.474-.097.538Zm.041.114c.179-.063.37-.046.414.357.025.237-.001.504-.096.538h-.002c-.095.034-.283-.158-.413-.357-.22-.34-.081-.474.097-.538ZM13.17 31.02l.042 1.622.988-1.287-.042-1.623-.987 1.288Zm.532.117c-.158-.051-.28-.165-.097-.467.108-.177.268-.348.351-.32h.002c.084.027.112.26.096.466-.029.352-.195.372-.352.32Zm-.033.101c.157.051.28.165.097.467-.108.177-.268.348-.352.32h-.002c-.083-.027-.112-.26-.096-.466.03-.353.196-.372.353-.32Z"/><path fill="#fff" d="m11.863 31.36 1.35 1.282-.244-1.844-1.35-1.282.244 1.845Zm.525-.335c-.169.086-.36.094-.457-.3-.055-.231-.064-.5.025-.545l.002-.001c.09-.046.302.12.456.3.262.31.143.46-.026.546Zm.056.109c.169-.087.36-.094.457.3.055.23.064.499-.025.545h-.002c-.09.046-.302-.119-.456-.3-.262-.309-.143-.46.026-.545ZM13.41 33.304l.253 1.603.81-1.406-.253-1.603-.81 1.406Zm.541.046c-.162-.03-.3-.127-.157-.45.085-.19.22-.38.307-.364h.002c.086.017.145.243.156.45.017.353-.146.394-.308.364Zm-.019.105c.163.03.3.127.157.45-.085.19-.22.38-.307.364h-.002c-.086-.017-.145-.243-.156-.45-.017-.353.146-.394.308-.364Z"/><path fill="#fff" d="m12.158 33.812 1.505 1.095-.482-1.797-1.505-1.095.482 1.797Zm.477-.401c-.157.107-.346.14-.493-.238-.085-.222-.129-.487-.046-.544h.002c.083-.058.314.078.491.237.3.272.202.438.046.545Zm.07.1c.155-.107.345-.14.491.238.085.222.13.486.046.544h-.001c-.083.058-.315-.078-.492-.237-.3-.273-.201-.438-.045-.545ZM13.945 35.537l.46 1.556.62-1.5-.46-1.556-.62 1.5Zm.543-.025c-.165-.009-.314-.087-.215-.426.06-.198.17-.405.257-.4h.002c.088.004.175.221.213.425.064.348-.092.41-.257.401Zm-.006.106c.166.009.314.087.215.426-.06.199-.17.405-.257.4h-.002c-.088-.004-.175-.221-.213-.425-.063-.347.092-.41.257-.4ZM12.77 36.204l1.635.889-.713-1.719-1.635-.889.713 1.72Zm.42-.46c-.14.127-.324.184-.52-.171-.112-.21-.19-.466-.116-.534l.002-.001c.075-.067.322.037.518.172.333.23.257.407.116.534Zm.082.09c.14-.127.324-.184.519.171.113.21.192.466.117.534l-.002.001c-.075.068-.322-.037-.518-.172-.333-.23-.257-.407-.116-.534ZM14.767 37.68l.659 1.484.42-1.568-.66-1.483-.42 1.568Zm.535-.095c-.165.013-.323-.045-.269-.394.033-.205.115-.424.203-.43h.002c.087-.008.203.196.267.393.108.337-.039.418-.204.431Zm.008.106c.165-.013.322.045.268.394-.032.205-.114.425-.202.431h-.002c-.088.007-.203-.196-.267-.394-.108-.336.039-.418.203-.43ZM13.689 38.496l1.737.668-.931-1.611-1.737-.668.93 1.61Zm.356-.511c-.123.144-.297.224-.537-.102-.14-.193-.25-.437-.185-.514l.001-.002c.066-.076.325-.004.537.103.36.186.307.37.184.515Zm.093.079c.123-.145.298-.225.537.102.14.192.251.437.186.513l-.002.002c-.065.076-.324.005-.536-.103-.36-.185-.308-.37-.185-.514ZM15.861 39.7l.847 1.383.212-1.609-.848-1.384-.21 1.61Zm.518-.165c-.162.034-.325-.003-.317-.356.005-.207.058-.435.144-.454h.002c.086-.018.227.169.317.356.15.32.016.42-.146.454Zm.023.104c.161-.035.325.002.317.355-.006.208-.058.436-.144.454h-.002c-.086.019-.227-.168-.317-.355-.15-.32-.016-.42.146-.454Z"/><path fill="#fff" d="m14.9 40.648 1.809.435-1.134-1.476-1.809-.435 1.133 1.476Zm.286-.554c-.103.16-.266.262-.546-.03-.163-.173-.305-.4-.25-.486v-.001c.056-.085.322-.047.546.032.381.136.353.327.25.485Zm.103.067c.103-.16.265-.262.545.03.164.173.306.401.251.486l-.001.001c-.055.085-.32.048-.545-.031-.381-.137-.354-.328-.25-.486ZM17.21 41.557l1.02 1.262v-1.623l-1.02-1.261v1.622Zm.492-.23c-.156.055-.323.04-.36-.311-.022-.207 0-.44.083-.47h.002c.083-.03.247.138.36.312.191.297.07.414-.085.469Zm.036.1c.156-.055.323-.04.361.311.021.206-.001.44-.084.469h-.002c-.083.03-.247-.137-.36-.311-.191-.297-.07-.414.085-.47Z"/><path fill="#fff" d="m16.38 42.623 1.85.196-1.316-1.315-1.85-.196 1.316 1.315Zm.212-.585c-.081.17-.23.294-.545.04-.184-.15-.355-.357-.312-.448l.001-.002c.044-.091.312-.089.545-.04.396.086.393.279.311.45Zm.11.052c.082-.171.23-.295.546-.04.184.149.355.356.311.447v.002c-.044.091-.312.089-.545.04-.396-.086-.393-.278-.311-.45ZM18.79 43.224l1.177 1.117-.213-1.609-1.176-1.117.212 1.608Zm.458-.293c-.148.075-.315.082-.399-.262-.048-.201-.056-.435.022-.475l.002-.001c.078-.04.263.104.398.262.228.27.124.4-.023.476Zm.049.094c.147-.075.314-.082.398.262.048.201.056.435-.022.475l-.002.001c-.078.04-.263-.104-.397-.262-.229-.27-.125-.4.023-.476ZM18.106 44.389l1.86-.048-1.476-1.132-1.86.048 1.476 1.132Zm.134-.609c-.059.18-.19.322-.535.111-.203-.124-.4-.307-.368-.403v-.002c.032-.096.298-.129.535-.11.404.033.426.224.368.404Zm.116.038c.058-.18.189-.322.535-.112.203.125.399.308.368.404v.002c-.032.096-.299.128-.536.11-.403-.033-.426-.224-.367-.404ZM20.574 44.67l1.312.954-.42-1.568-1.313-.954.421 1.567Zm.415-.35c-.136.093-.301.121-.429-.208-.074-.194-.112-.425-.04-.474l.002-.001c.072-.05.274.069.428.207.262.238.176.381.04.475Zm.061.087c.136-.094.302-.123.43.207.073.193.112.424.04.474l-.002.001c-.072.05-.274-.069-.428-.207-.262-.238-.176-.382-.04-.475ZM20.048 45.914l1.838-.29-1.612-.93-1.838.29 1.612.93Zm.053-.62c-.035.186-.145.343-.516.18-.217-.098-.436-.254-.417-.353v-.002c.018-.1.278-.166.516-.179.404-.02.452.167.417.353Zm.12.02c.035-.185.145-.343.516-.18.217.098.436.254.417.353v.002c-.018.1-.278.166-.516.179-.404.02-.452-.167-.417-.353ZM22.531 45.87l1.426.775-.622-1.499-1.425-.775.621 1.499Zm.367-.401c-.123.11-.283.16-.453-.15-.099-.182-.167-.406-.102-.465l.002-.001c.065-.059.28.032.452.15.29.2.223.355.1.465Zm.071.078c.123-.11.283-.16.453.15.098.182.167.406.101.465v.001c-.066.059-.282-.033-.453-.15-.29-.201-.224-.355-.1-.466Z"/><path fill="#fff" d="m22.172 47.172 1.785-.527-1.72-.711-1.784.527 1.72.711Zm-.028-.622c-.01.19-.1.36-.488.246-.228-.068-.465-.194-.46-.295V46.5c.005-.1.254-.201.488-.245.399-.072.47.107.46.296Zm.122.006c.01-.19.099-.36.488-.246.227.068.465.194.46.295v.002c-.006.1-.255.201-.489.245-.398.072-.47-.107-.46-.296ZM24.628 46.805l1.515.582-.812-1.405-1.515-.582.812 1.405Zm.311-.446c-.107.126-.26.196-.468-.089-.122-.168-.219-.381-.162-.448l.002-.001c.057-.067.282-.005.467.09.314.16.269.322.161.448Zm.081.069c.108-.126.26-.196.468.089.122.168.22.38.162.447l-.001.002c-.057.067-.283.004-.468-.09-.314-.161-.268-.323-.16-.448ZM24.443 48.143l1.7-.756-1.798-.48-1.7.755 1.798.481Zm-.11-.613c.015.189-.051.37-.452.307-.234-.037-.486-.131-.494-.232v-.002c-.008-.1.226-.233.452-.306.386-.124.48.044.494.233Zm.122-.01c-.015-.19.051-.37.452-.308.234.037.486.132.494.232v.002c.008.1-.226.233-.452.307-.386.123-.48-.044-.494-.233ZM26.83 47.458l1.577.38-.988-1.288-1.578-.38.989 1.288Zm.25-.483c-.09.139-.232.229-.476-.027-.143-.15-.267-.349-.219-.423l.001-.001c.048-.074.28-.041.476.028.332.119.308.285.218.423Zm.09.058c.09-.139.23-.228.475.027.143.15.267.35.219.423l-.001.002c-.048.073-.28.04-.476-.028-.332-.12-.308-.285-.218-.424Z"/><path fill="#fff" d="m26.82 48.809 1.587-.971-1.845-.243-1.587.972 1.845.242Zm-.188-.594c.039.185-.003.373-.408.364-.238-.007-.5-.067-.52-.166l-.001-.002c-.02-.098.194-.26.408-.363.366-.173.481-.018.52.167Zm.119-.026c-.04-.185.003-.373.408-.364.237.007.499.067.52.166v.002c.021.099-.193.26-.408.363-.366.173-.48.019-.52-.167ZM29.097 47.818l1.614.17-1.148-1.146-1.614-.171 1.148 1.147Zm.185-.511c-.071.15-.2.256-.475.035-.161-.13-.31-.311-.272-.39v-.002c.038-.08.272-.078.475-.035.346.075.343.243.272.392Zm.096.045c.071-.149.2-.256.476-.035.16.13.31.312.271.39v.003c-.038.079-.272.077-.475.034-.345-.075-.343-.242-.272-.392ZM29.264 49.159l1.447-1.17h-1.86l-1.448 1.17h1.861ZM29 48.594c.063.18.046.37-.357.414-.237.025-.504 0-.538-.096v-.002c-.034-.095.158-.283.357-.413.34-.219.474-.081.538.097Zm.114-.04c-.063-.18-.045-.37.357-.415.237-.024.504.002.538.097v.002c.034.095-.157.283-.357.413-.34.219-.474.081-.538-.098ZM28.311 12.829l2.453 1.226 2.452-1.226-2.453-1.227-2.452 1.226Zm1.651.576c-.325-.137-.642-.356-.604-.411.047-.07.097-.059.64-.059.378 0 .681.123.681.433 0 .311-.307.208-.717.037Zm2.207-.412c.038.055-.279.274-.604.41-.41.172-.717.275-.717-.036 0-.31.303-.433.681-.433.543 0 .593-.01.64.059Zm-2.811-.33c-.038-.055.279-.274.604-.41.41-.172.717-.275.717.036 0 .31-.303.433-.681.433-.543 0-.593.01-.64-.059Zm2.206-.41c.326.137.643.356.605.411-.047.07-.097.059-.64.059-.378 0-.681-.123-.681-.433s.307-.208.716-.036ZM30.711 48.176l-.934.935.934.934.934-.934-.934-.935Zm-.084 1.413c0 .076 0 .174-.29-.087-.191-.208-.2-.27-.18-.29.02-.02.026-.017.181-.017.23 0 .29.113.29.29v.104Zm-.289-.563c-.155 0-.16.004-.181-.017-.02-.02-.011-.081.18-.29.29-.26.29-.163.29-.087v.103c0 .178-.06.291-.289.291Zm.457-.394c0-.076 0-.174.29.087.191.209.2.27.18.29-.02.021-.026.017-.18.017-.23 0-.29-.113-.29-.29v-.104Zm.29.87c-.29.26-.29.163-.29.087v-.103c0-.178.06-.291.29-.291.154 0 .16-.004.18.017.02.02.011.082-.18.29ZM30.711 45.862l-.934.934.934.934.934-.934-.934-.934Zm-.084 1.413c0 .076 0 .173-.29-.088-.191-.208-.2-.269-.18-.29.02-.02.026-.017.181-.017.23 0 .29.113.29.291v.104Zm-.289-.563c-.155 0-.16.004-.181-.018-.02-.02-.011-.081.18-.289.29-.261.29-.163.29-.088v.104c0 .178-.06.29-.289.29Zm.457-.395c0-.075 0-.173.29.088.191.208.2.269.18.29-.02.02-.026.017-.18.017-.23 0-.29-.113-.29-.291v-.104Zm.29.87c-.29.261-.29.164-.29.088v-.104c0-.178.06-.29.29-.29.154 0 .16-.004.18.017.02.02.011.081-.18.29Z"/><path fill="#000" d="M30.601 52.444c-12.208 0-22.14-9.932-22.14-22.14s9.932-22.14 22.14-22.14 22.14 9.932 22.14 22.14-9.932 22.14-22.14 22.14Zm0-44.154c-12.139 0-22.014 9.875-22.014 22.014S18.462 52.318 30.6 52.318s22.014-9.875 22.014-22.014S42.74 8.29 30.601 8.29Z"/><path fill="#000" d="M30.601 51.418c-11.642 0-21.114-9.472-21.114-21.114C9.487 18.662 18.959 9.19 30.6 9.19c11.642 0 21.114 9.472 21.114 21.114 0 11.642-9.472 21.114-21.114 21.114Zm0-42.108c-11.576 0-20.994 9.418-20.994 20.994s9.418 20.994 20.994 20.994 20.994-9.418 20.994-20.994S42.177 9.31 30.6 9.31Z"/><path fill="#00040C" d="m4.362 25.443-.198 1.23.267.133-.089.554-2.996-1.496.086-.536 3.315-.486-.09.558-.295.043Zm-.7.983.146-.9-1.514.216 1.369.684ZM1.568 24.584l.11-.532.588.12-.041.201c-.138.008-.279.093-.417.26l-.24-.05ZM2.042 22.46l.24-.755c.286-.904 1.194-1.34 2.056-1.067.819.259 1.273 1.14.983 2.057l-.231.73-3.048-.965Zm.672-.352 2.029.642.071-.225c.191-.602-.101-1.2-.64-1.37-.582-.184-1.194.113-1.38.703l-.08.25ZM2.944 19.742l.592-1.44.494.202-.386.939.73.3.245-.597.494.203-.246.597.746.306.389-.947.494.203-.596 1.45-2.956-1.216ZM5.838 18.692c.215-.003.546-.087.688-.374.125-.251.077-.504-.095-.59-.187-.092-.473.094-.758.275-.415.266-.825.53-1.267.31-.427-.212-.59-.715-.344-1.21.228-.458.696-.608.923-.665l.124.53c-.147.036-.447.13-.568.373-.103.207-.049.409.107.486.179.089.457-.09.741-.273.416-.266.833-.535 1.284-.311.434.216.595.783.332 1.313-.254.51-.811.67-1.165.674l-.002-.538ZM4.742 15.906l.269-.472 2.777 1.582-.268.472-2.778-1.582ZM7.228 13.527c-.27.05-.539.18-.725.456-.33.492-.185 1.169.321 1.509.506.34 1.188.22 1.518-.272.18-.266.195-.56.17-.739l-.728-.489.303-.45.902.606c.134.422.082.946-.203 1.37-.497.74-1.512.931-2.265.425-.754-.507-.958-1.519-.461-2.258.265-.395.659-.613 1.062-.686l.106.528ZM7.174 12.193l.347-.418 1.925.27-1.27-1.057.349-.417 2.456 2.046-.348.417-.41-.341-1.922-.268 1.677 1.396-.348.418-2.456-2.046ZM13.028 10.222l-.919.842.127.27-.413.38-1.421-3.034.4-.367 2.901 1.677-.416.382-.259-.15Zm-1.158.337.673-.616-1.321-.77.648 1.386ZM14.489 9.388l-.36.262-2.69-1.996.457-.332 1.782 1.33-.713-2.108.468-.34 1.785 1.326-.716-2.104.457-.333 1.07 3.174-.36.262-1.96-1.453.78 2.312ZM17.999 6.78l-1.085.615.063.292-.488.277-.705-3.275.473-.268 2.452 2.284-.492.28-.218-.205Zm-1.205.07.794-.45-1.115-1.047.321 1.496ZM18.279 3.398c.562-.257 1.218-.033 1.46.497.15.328.108.695-.08.977l1.213.855-.595.272-1.052-.757-.481.22.468 1.024-.494.226-1.33-2.906.89-.408Zm.242 1.578.43-.196c.27-.124.404-.42.295-.66-.12-.262-.462-.366-.761-.228l-.38.174.416.91Z"/><path fill="#00040C" d="m19.79 2.73.748-.26c.895-.311 1.788.156 2.085 1.01.282.811-.153 1.703-1.061 2.018l-.723.252-1.05-3.02Zm.683.328.7 2.01.222-.077c.597-.208.9-.799.715-1.333-.2-.576-.804-.89-1.389-.686l-.248.086ZM23.238 3.964c.142.16.422.356.732.276.272-.07.431-.27.384-.456-.052-.203-.38-.298-.703-.395-.472-.14-.94-.279-1.062-.757-.118-.462.157-.913.692-1.05.496-.127.915.129 1.106.264l-.32.44c-.123-.088-.39-.254-.654-.187-.224.058-.34.23-.298.398.05.194.368.287.691.384.473.14.95.28 1.074.768.12.47-.204.962-.778 1.109-.552.141-1.037-.176-1.27-.442l.406-.352ZM25.852 1.084 27.396.87l.073.529-1.006.139.108.78.64-.088.072.53-.64.087.184 1.328-.538.074-.437-3.166ZM30.773 2.266c.046.907-.642 1.677-1.53 1.721-.89.045-1.651-.652-1.697-1.559-.046-.907.642-1.677 1.531-1.721.89-.045 1.65.652 1.696 1.559Zm-2.685.135c.031.609.536 1.083 1.127 1.053.592-.03 1.047-.552 1.016-1.16-.03-.61-.536-1.084-1.127-1.054-.591.03-1.046.552-1.016 1.16ZM32.162.756c.617.033 1.094.536 1.062 1.119-.02.36-.228.665-.527.827l.677 1.32-.654-.035-.578-1.16-.529-.028-.061 1.124-.543-.03.175-3.19.978.053Zm-.52 1.51.471.025c.298.016.554-.184.569-.446.015-.289-.238-.539-.567-.557l-.418-.023-.055 1ZM36.139 4.199l-1.226-.23-.14.264-.55-.103 1.571-2.958.534.1.401 3.327-.555-.104-.035-.296Zm-.966-.724.897.167-.178-1.518-.719 1.35ZM38.536 1.795c.596.166.953.76.797 1.322-.097.347-.366.6-.693.694l.376 1.436-.63-.176-.315-1.257-.51-.142-.303 1.085-.523-.146.858-3.08.943.264Zm-.832 1.362.454.127c.288.08.581-.06.651-.313.078-.279-.116-.578-.433-.666l-.403-.113-.27.965ZM40.273 2.9l-.653-.238.183-.502 1.816.66-.182.501-.653-.236-.908 2.502-.51-.186.907-2.502ZM41.186 5.085c.012.215.11.541.403.672.256.114.506.055.584-.12.085-.19-.112-.469-.306-.745-.282-.404-.563-.802-.362-1.253.194-.435.69-.619 1.194-.394.468.209.638.67.703.894l-.523.146c-.042-.145-.15-.441-.397-.552-.212-.094-.41-.032-.48.127-.083.183.109.453.302.73.283.404.57.81.365 1.269-.198.443-.757.627-1.298.386-.52-.232-.704-.782-.722-1.136l.537-.024ZM42.693 6.235l.483.25-.52 1.008-.182-.094c.03-.135-.014-.292-.138-.471l.357-.693ZM45.746 8.327l-1.042-.684-.23.19-.47-.308 2.591-2.123.454.298-.912 3.224-.473-.31.082-.287Zm-.611-1.04.763.5.421-1.47-1.184.97ZM48.885 7.036c.486.383.586 1.069.225 1.527-.224.283-.57.412-.907.373l-.208 1.47-.513-.406.194-1.281-.416-.328-.697.884-.427-.337 1.98-2.509.77.607Zm-1.294.935.37.293c.235.184.56.168.722-.038.18-.227.116-.578-.142-.782l-.33-.26-.62.787ZM51.174 10.032a1.038 1.038 0 0 0-.314-.62c-.428-.408-1.12-.379-1.54.062-.422.442-.418 1.134.01 1.543.21.2.486.297.76.287l-.013.542a1.59 1.59 0 0 1-1.115-.443c-.644-.614-.662-1.646-.036-2.303.627-.657 1.659-.688 2.303-.074.27.258.43.595.479.943l-.534.063ZM52.232 10.088l.357.41-1.001.87.672.772 1-.87.357.41-2.412 2.097-.356-.41 1.008-.876-.672-.773-1.008.877-.356-.41 2.411-2.097ZM53.943 12.117l.33.432-2.54 1.941-.33-.431 2.54-1.941ZM54.383 13.61l-.394-.571.44-.303 1.096 1.59-.44.304-.394-.572-2.193 1.51-.308-.448 2.193-1.51ZM55.663 14.554l.796 1.34-.46.272-.518-.872-.677.402.33.555-.46.273-.33-.555-.693.412.523.88-.46.273-.8-1.348 2.75-1.632ZM56.935 18.43c.052-.228.028-.47-.08-.689-.26-.532-.92-.744-1.468-.475-.548.269-.784.92-.523 1.452.128.26.353.447.614.532l-.2.505a1.591 1.591 0 0 1-.893-.802c-.393-.8-.053-1.774.763-2.174.815-.4 1.794-.073 2.187.727.164.335.198.706.123 1.05l-.523-.125ZM57.6 19.55l-.252-.647.498-.193.7 1.801-.498.193-.251-.647-2.482.964-.197-.506 2.482-.964ZM57.195 23.42c-.69.207-1.15-.022-1.351-.691-.201-.67.056-1.114.746-1.322l2.056-.617.156.52-2.08.625c-.334.1-.461.324-.367.64.095.316.326.432.658.332l2.081-.625.156.52-2.055.618ZM59.588 24.33c.124.606-.242 1.194-.813 1.311a1.002 1.002 0 0 1-.934-.3l-1.106.99-.13-.64.974-.854-.106-.52-1.104.227-.109-.532 3.132-.642.196.96Zm-1.592-.12.094.463c.06.292.319.489.576.436.284-.058.461-.367.395-.69l-.084-.41-.981.201Z"/><path fill="#00040C" d="m59.88 25.918.19 1.546-.53.065-.123-1.007-.783.096.079.64-.53.066-.079-.64-.8.097.125 1.017-.53.065-.191-1.556 3.173-.39ZM57.446 28.13l.038.542-1.132.079-.015-.204c.131-.045.243-.165.332-.363l.777-.054ZM60.216 30.263l-.031.791c-.037.948-.798 1.609-1.701 1.574-.859-.034-1.53-.764-1.492-1.725l.03-.765 3.194.125Zm-.555.517-2.127-.083-.009.236c-.024.631.415 1.13.98 1.152.61.024 1.121-.424 1.146-1.043l.01-.262ZM60.068 33.121l-.193 1.546-.53-.066.126-1.007-.782-.097-.08.64-.53-.066.08-.64-.8-.1-.126 1.016-.53-.066.193-1.554 3.172.394ZM57.556 34.899c-.206.06-.502.23-.562.544-.054.276.06.506.249.543.205.04.431-.216.656-.468.33-.367.654-.73 1.139-.637.468.09.759.531.654 1.073-.097.503-.507.773-.71.888l-.262-.477c.132-.074.396-.245.448-.512.044-.227-.063-.406-.233-.439-.197-.038-.417.21-.642.461-.33.367-.66.739-1.153.644-.477-.092-.783-.595-.671-1.177.108-.56.602-.863.942-.96l.145.517ZM59.36 37.286l-.133.527-3.1-.78.132-.526 3.1.78ZM57.602 40.244c.246-.12.471-.317.577-.634.186-.562-.135-1.175-.714-1.368-.579-.192-1.204.107-1.39.669-.102.304-.038.593.034.757l.832.277-.17.515-1.032-.342a1.62 1.62 0 0 1-.171-1.376c.28-.844 1.206-1.302 2.068-1.015.862.286 1.33 1.206 1.05 2.051-.15.453-.471.768-.84.946l-.244-.48ZM58.01 41.518l-.222.495-1.927.254 1.506.68-.224.495-2.913-1.315.223-.495.487.22 1.922-.256-1.988-.897.223-.495 2.914 1.314ZM54.527 42.675l-.254.48-1.003-.532.096-.18c.135.03.293-.011.473-.133l.688.365ZM55.755 45.916l-.856 1.301-.447-.293.559-.848-.659-.434-.355.54-.446-.294.355-.54-.673-.442-.563.855-.446-.294.861-1.309 2.67 1.758ZM54.635 47.603l-.333.428-1.932-.204 1.304 1.013-.333.429-2.524-1.96.333-.429.422.328 1.929.201-1.723-1.338.333-.428 2.524 1.96ZM50.769 50.818c.273-.003.561-.085.792-.326.41-.428.381-1.12-.06-1.541-.44-.422-1.133-.419-1.542.009-.222.231-.288.52-.293.699l.634.606-.376.392-.785-.75c-.06-.44.08-.946.434-1.316.615-.644 1.648-.66 2.304-.033.656.628.685 1.66.07 2.303-.33.345-.754.492-1.164.495l-.014-.538ZM50.628 52.089l-.404.363-2.14-2.374.403-.363 2.14 2.373ZM49.813 52.833l-.426.337-1.828-.657 1.026 1.294-.426.337-1.986-2.504.426-.337.332.418 1.825.654-1.355-1.709.425-.337 1.987 2.504ZM47.675 54.483l-1.295.867-.297-.444.844-.565-.439-.655-.536.36-.297-.445.536-.359-.448-.67-.851.57-.297-.444 1.302-.872 1.778 2.657ZM46.024 55.57l-1.35.778-.267-.463.88-.507-.394-.683-.56.323-.266-.463.559-.322-.403-.699-.887.512-.267-.463 1.358-.783 1.597 2.77ZM43.403 56.985c-.558.267-1.218.055-1.47-.47a1.003 1.003 0 0 1 .064-.98l-1.228-.832.59-.283 1.065.738.477-.229-.486-1.015.49-.235 1.38 2.883-.882.423Zm-.27-1.574-.426.204c-.27.13-.398.428-.284.664.125.261.468.359.765.216l.377-.18-.433-.904ZM41.955 57.635l-.503.204-1.201-2.962.503-.204 1.201 2.962ZM40.932 58.058l-.515.171-1.493-1.243.522 1.567-.516.171-1.01-3.032.516-.172.169.507 1.491 1.24-.689-2.07.516-.172 1.01 3.033ZM35.926 58.58c.23.15.514.243.84.17.579-.127.94-.718.809-1.313-.132-.595-.709-.979-1.287-.85-.313.068-.528.27-.632.417l.189.856-.53.117-.235-1.06a1.619 1.619 0 0 1 1.093-.852c.87-.193 1.736.368 1.932 1.255.196.887-.354 1.76-1.223 1.953-.465.102-.9-.011-1.242-.237l.286-.455ZM34.78 56.913l-.537.078-.163-1.123.202-.03c.055.127.182.23.386.304l.113.77ZM32.888 59.81l-.541.037-.215-3.189.542-.036.214 3.188ZM31.786 59.892l-.543.001-1.029-1.648.005 1.652-.543.001-.01-3.196.543-.001.002.534 1.029 1.644-.007-2.182.543-.001.01 3.196ZM29.033 59.87l-.54-.047-.874-1.736-.146 1.645-.541-.048.283-3.184.541.048-.047.532.873 1.732.194-2.173.541.048-.284 3.184ZM23.564 57.448c.175-.89 1.03-1.47 1.903-1.298.873.172 1.443 1.033 1.267 1.924-.175.89-1.03 1.47-1.903 1.299-.873-.173-1.443-1.034-1.267-1.925Zm2.637.52c.119-.598-.257-1.18-.838-1.295-.58-.114-1.149.282-1.267.88-.118.599.258 1.18.838 1.296.581.114 1.15-.282 1.267-.88ZM22.616 56.426l-1.345 1.972-.541-.165 1.893-2.764.52.158.027 3.35-.537-.164-.017-2.387ZM20.182 54.878l1.159.46.187-.233.522.207-2.109 2.603-.505-.2.242-3.343.526.209-.022.297Zm.809.896-.849-.337-.116 1.525.965-1.188ZM18.287 56.63l.626.3-.231.481-1.742-.835.23-.482.627.3 1.15-2.4.49.235-1.15 2.4ZM16.727 56.449l-.477-.26 1.526-2.809.477.26-1.526 2.809ZM14.01 52.912c.495-.762 1.504-.983 2.25-.497.747.485.956 1.496.46 2.258-.494.762-1.503.982-2.25.497-.747-.485-.955-1.497-.46-2.258Zm2.255 1.465c.333-.512.201-1.192-.296-1.514-.496-.323-1.171-.167-1.503.345-.333.511-.201 1.191.295 1.514.497.323 1.172.166 1.504-.345ZM12.74 53.922l-.422-.343.25-1.927-1.043 1.28-.421-.344 2.02-2.477.421.344-.338.414-.247 1.923 1.379-1.69.42.343-2.02 2.477ZM9.073 49.547c.26-.243.572-.235.9-.163l.11-.894c-.112-.01-.228-.018-.357-.025l.031-.541.39.026.053-.445.54.07-.05.442c.366.066.636.186.87.437.424.456.422 1.054.05 1.4-.354.33-.766.3-1.172.204l-.018.15a.852.852 0 0 1-.257.515.797.797 0 0 1-1.14-.04.793.793 0 0 1 .05-1.136Zm.37.398c-.11.103-.129.266-.028.373a.265.265 0 0 0 .377.007.317.317 0 0 0 .089-.186l.026-.22c-.2-.044-.369-.063-.463.026Zm1.798-.488c.156-.146.134-.418-.072-.64-.128-.136-.302-.211-.546-.258l-.119.963c.281.067.564.096.737-.065ZM8.754 46.747c.098-.19.178-.522-.009-.783-.163-.227-.41-.303-.565-.191-.17.122-.14.462-.112.798.041.492.083.977-.319 1.265-.386.278-.907.187-1.23-.262-.298-.416-.213-.9-.156-1.126l.526.137c-.037.148-.094.457.064.678.136.188.339.234.48.132.162-.117.133-.447.106-.783-.041-.492-.084-.987.324-1.28.394-.283.97-.16 1.316.32.333.463.214 1.031.05 1.346l-.475-.25ZM5.293 44.226c-.034.232.01.47.134.681.302.51.977.669 1.501.358.525-.311.709-.98.406-1.489a1.046 1.046 0 0 0-.653-.482l.158-.518c.39.105.735.356.955.728.454.766.193 1.765-.588 2.228-.782.464-1.784.214-2.238-.552a1.61 1.61 0 0 1-.207-1.037l.532.083ZM4.327 43.921l-.246-.484 2.85-1.448.246.484-2.85 1.448ZM3.848 42.977l-.632-1.424.488-.217.412.928.72-.32-.262-.59.489-.216.262.59.736-.327-.415-.936.488-.217.636 1.433-2.922 1.297ZM3.034 41.12l-.18-.511 1.216-1.515-1.557.549-.181-.512 3.014-1.063.181.512-.504.178L3.81 40.27l2.057-.725.181.512-3.014 1.063ZM2.338 36.287c-.1.212-.127.453-.07.69.142.576.74.924 1.333.779.592-.145.962-.73.821-1.306a1.046 1.046 0 0 0-.485-.651l.303-.45c.34.215.598.555.701.974.212.865-.329 1.744-1.211 1.96-.882.216-1.768-.314-1.98-1.178a1.608 1.608 0 0 1 .104-1.052l.484.234ZM1.49 35.691l-.243-1.538.527-.084.159 1.003.778-.123-.1-.638.527-.083.1.637.796-.126-.16-1.01.528-.084.245 1.547-3.157.5ZM2.62 28.66.976 30.304l1.644 1.644 1.645-1.644L2.62 28.66Zm-.147 2.486c0 .134 0 .306-.512-.154-.335-.366-.352-.473-.316-.509.036-.037.046-.03.319-.03.404 0 .51.198.51.512l-.001.181Zm-.51-.99c-.272 0-.282.006-.318-.031-.036-.036-.02-.143.316-.51.512-.459.512-.287.512-.154v.182c0 .314-.105.512-.51.512Zm.805-.695c0-.133 0-.305.512.155.335.366.351.473.316.509-.036.037-.046.03-.319.03-.404 0-.51-.198-.51-.512v-.182Zm.512 1.531c-.512.46-.512.288-.512.154v-.181c0-.314.105-.513.51-.513.272 0 .282-.006.318.031.035.036.02.143-.316.51Z"/><path fill="#fff" fill-rule="evenodd" d="m22.136 39.384.261-.609.262.609h-.523Zm.261-.994-.722 1.535h.19l.203-.36h.654l.207.36h.194l-.726-1.535ZM24.657 39.602c-.11.096-.284.143-.52.143h-.127V38.57h.146c.217 0 .384.05.498.15.112.1.17.246.17.437 0 .2-.056.348-.167.444Zm.125-1.012c-.15-.132-.363-.2-.64-.2h-.312v1.535h.302c.287 0 .505-.063.651-.193.147-.128.222-.319.222-.573 0-.245-.075-.434-.223-.569ZM25.45 39.745v-.542h.632v-.18h-.633v-.452h.633v-.181h-.814v1.535h.814v-.18h-.633ZM26.794 39.018l-.01-.004a.739.739 0 0 1-.206-.123.18.18 0 0 1-.052-.133c0-.056.023-.103.068-.137a.313.313 0 0 1 .19-.05c.056 0 .107.008.152.024s.08.038.104.066l.119-.076a.415.415 0 0 0-.37-.195.49.49 0 0 0-.322.1.319.319 0 0 0-.122.261c0 .094.028.17.085.23.056.06.157.123.3.187a.976.976 0 0 1 .261.152c.05.048.078.104.078.17a.228.228 0 0 1-.085.188.36.36 0 0 1-.23.067.434.434 0 0 1-.21-.048.265.265 0 0 1-.127-.133l-.072.092c.034.084.088.15.164.2.076.047.165.07.267.07a.5.5 0 0 0 .346-.115.396.396 0 0 0 .128-.312c0-.172-.153-.331-.456-.481Z" clip-rule="evenodd"/><path fill="#fff" d="M27.693 38.39h-.18v1.535h.18V38.39Z"/><path fill="#fff" fill-rule="evenodd" d="M28.77 39.113v.18h.543a.45.45 0 0 1-.175.324.597.597 0 0 1-.389.128.61.61 0 0 1-.437-.167.544.544 0 0 1-.175-.412c0-.172.057-.313.172-.426a.595.595 0 0 1 .437-.17c.108 0 .205.025.293.071a.572.572 0 0 1 .214.2l.15-.108a.74.74 0 0 0-.275-.256.814.814 0 0 0-.382-.087.776.776 0 0 0-.565.22.733.733 0 0 0-.225.548c0 .223.074.406.222.55a.772.772 0 0 0 .563.217c.231 0 .415-.073.551-.22.134-.147.202-.344.202-.592h-.724ZM29.938 39.925v-1.167l1.175 1.167V38.39h-.18v1.164l-1.176-1.164v1.535h.18ZM32.706 39.384l.262-.609.262.609h-.524Zm.262-.994-.722 1.535h.189l.204-.36h.654l.207.36h.193l-.725-1.535ZM34.184 39.553l-.464-1.163h-.177l.641 1.535.482-1.164.481 1.164.657-1.535h-.188l-.469 1.163-.478-1.163-.485 1.163ZM36.114 39.384l.262-.609.26.609h-.522Zm.262-.994-.722 1.535h.189l.203-.36h.655l.206.36h.194l-.725-1.535ZM37.868 38.97c-.052.035-.136.052-.25.052h-.125v-.451h.125c.111 0 .193.02.247.056.054.037.08.096.08.177 0 .076-.026.132-.077.166Zm-.151.226a.436.436 0 0 0 .3-.109.374.374 0 0 0 .11-.282.383.383 0 0 0-.128-.308c-.085-.07-.206-.107-.366-.107h-.32v1.535h.18v-.722h.051l.467.722h.206l-.5-.73ZM39.308 39.602c-.11.096-.284.143-.52.143h-.127V38.57h.145c.218 0 .385.05.498.15.113.1.171.246.171.437 0 .2-.056.348-.167.444Zm.125-1.012c-.15-.132-.363-.2-.64-.2h-.313v1.535h.303c.287 0 .504-.063.651-.193.147-.128.222-.319.222-.573 0-.245-.075-.434-.223-.569ZM24.411 41.505a.411.411 0 0 1-.185.046.305.305 0 0 1-.213-.074.242.242 0 0 1-.085-.19.25.25 0 0 1 .063-.172c.04-.048.12-.107.235-.18l.375.433a.774.774 0 0 1-.19.137Zm.015-.856a.6.6 0 0 1-.159.119l-.05-.057a.608.608 0 0 1-.082-.106.164.164 0 0 1-.026-.081.13.13 0 0 1 .048-.108.216.216 0 0 1 .136-.039c.052 0 .095.014.129.041.032.028.049.063.049.109a.184.184 0 0 1-.045.122Zm.384.72a2.379 2.379 0 0 0 .203-.276l-.125-.084a1.978 1.978 0 0 1-.172.246l-.363-.392a.813.813 0 0 0 .23-.178.309.309 0 0 0 .069-.194.263.263 0 0 0-.1-.21.386.386 0 0 0-.258-.085c-.11 0-.199.029-.265.085a.263.263 0 0 0-.1.213c0 .045.009.09.03.13a.68.68 0 0 0 .12.155l.059.06a1.145 1.145 0 0 0-.303.234.364.364 0 0 0-.088.237.39.39 0 0 0 .13.305c.088.079.203.117.344.117.08 0 .158-.021.237-.063a.963.963 0 0 0 .24-.19l.181.253h.225l-.294-.363ZM27.348 41.399a.928.928 0 0 1-.51.153.689.689 0 0 1-.475-.169.536.536 0 0 1-.19-.42c0-.167.066-.306.199-.418a.743.743 0 0 1 .493-.168.87.87 0 0 1 .483.153v-.183a.68.68 0 0 0-.223-.111 1.033 1.033 0 0 0-.283-.04.876.876 0 0 0-.606.22.702.702 0 0 0-.244.547c0 .223.078.408.24.552a.872.872 0 0 0 .61.217c.08 0 .17-.014.268-.042a.779.779 0 0 0 .238-.105V41.4ZM28.785 41.382a.64.64 0 0 1-.45.17.637.637 0 0 1-.453-.17.546.546 0 0 1-.18-.418c0-.16.057-.299.173-.415a.625.625 0 0 1 .46-.172c.18 0 .329.057.45.17a.548.548 0 0 1 .183.417c0 .165-.06.305-.183.418Zm.13-.965a.815.815 0 0 0-.58-.22.815.815 0 0 0-.581.22.724.724 0 0 0-.234.547c0 .216.078.398.235.546a.806.806 0 0 0 .58.222c.229 0 .42-.073.578-.222a.718.718 0 0 0 .235-.546c0-.217-.077-.4-.232-.547ZM29.321 41.732h.183l.152-1.019.524 1.019.526-1.019.153 1.019h.18l-.252-1.536-.602 1.223-.607-1.223-.257 1.536ZM31.85 40.857c-.055.042-.153.062-.289.062h-.077v-.542h.077c.133 0 .228.023.288.065.057.042.087.112.087.207 0 .096-.029.165-.085.208Zm.127-.547c-.093-.076-.233-.114-.421-.114h-.253v1.536h.18v-.633h.073c.182 0 .32-.037.416-.114.097-.076.145-.189.145-.336 0-.15-.047-.263-.14-.34ZM32.56 41.551v-.542h.634v-.18h-.634v-.452h.634v-.18h-.814v1.535h.814v-.18h-.634ZM33.927 41.732v-1.355h.361v-.18h-.904v.18h.361v1.355h.182Z" clip-rule="evenodd"/><path fill="#fff" d="M34.67 40.196h-.18v1.536h.18v-1.536Z"/><path fill="#fff" fill-rule="evenodd" d="M35.386 41.732v-1.355h.361v-.18h-.904v.18h.362v1.355h.18Z" clip-rule="evenodd"/><path fill="#fff" d="M36.191 40.196h-.18v1.536h.18v-1.536Z"/><path fill="#fff" fill-rule="evenodd" d="M37.668 41.382a.64.64 0 0 1-.451.17.636.636 0 0 1-.452-.17.546.546 0 0 1-.181-.418c0-.16.058-.299.174-.415a.626.626 0 0 1 .459-.172c.18 0 .329.057.451.17a.55.55 0 0 1 .182.417c0 .165-.06.305-.182.418Zm.13-.965a.815.815 0 0 0-.581-.22.815.815 0 0 0-.58.22.725.725 0 0 0-.234.547c0 .216.078.398.235.546a.807.807 0 0 0 .579.222.807.807 0 0 0 .578-.222.717.717 0 0 0 .236-.546c0-.217-.078-.4-.233-.547ZM38.48 41.732v-1.167l1.176 1.167v-1.536h-.18v1.165l-1.177-1.165v1.536h.181ZM23.105 38.98l.101.042.26-.556-.166-.076-.195.59ZM26.28 26.95c-1.498 0-3.007 4.727-3.007 6.712 0 2.032 1.204 2.755 2.997 2.755 1.766 0 2.996-.723 2.996-2.755 0-1.993-1.479-6.712-2.986-6.712Zm-4.602 5.44 4.547-12.93a.036.036 0 0 1 .07-.004c0 .001 4.497 12.682 6.236 17.575 0 0 .017.08.066.08.003.002 7.061.011 7.061.011V14.435h-17.98V32.39Z" clip-rule="evenodd"/><path fill="#fff" d="m24.304 46.879-.692-1.81-.682 1.81-1.483-3.85h.796l.687 1.81.677-1.81h.021l.676 1.81.682-1.81h.796l-1.478 3.85ZM26.213 46.764V43.03h.741v3.735h-.741ZM28.634 45.025v1.74h-.742v-3.84l1.581 1.849v-1.745h.742v3.839l-1.581-1.843ZM31.894 45.025v1.74h-.741v-3.84l1.581 1.849v-1.745h.742v3.839l-1.582-1.843ZM34.414 46.764V43.03h1.99v.742h-1.249v.747h1.249v.736h-1.249v.769h1.249v.741h-1.99ZM38.765 45.635l.987 1.13h-.987l-.845-.966v.965h-.742V43.03h.943a1.38 1.38 0 0 1 .643 2.606Zm-.644-1.864h-.201v1.286h.201c.355 0 .644-.289.644-.643a.645.645 0 0 0-.644-.643Z"/><path fill="#000" d="M33.387 36.468h-.23l.184-1.159h.238c.072 0 .127.005.163.014.146.04.205.15.176.33a.388.388 0 0 1-.134.25.412.412 0 0 1-.271.09l-.051-.003-.075.478Zm.153-.97-.049.306a.215.215 0 0 0 .136-.033c.033-.024.054-.065.062-.122.017-.1-.019-.15-.106-.15h-.043ZM34.089 35.31h.229l-.15.943h.24l-.034.215h-.468l.183-1.159ZM34.861 35.31h.242l.095 1.158h-.244l-.013-.195h-.232l-.072.195h-.227l.451-1.159Zm.076.782-.01-.31.002-.174h-.003l-.052.175-.099.309h.162ZM35.33 35.31h.59l-.034.215h-.18l-.15.943h-.229l.15-.943h-.18l.033-.216ZM36.025 35.31h.229l-.183 1.158h-.23l.184-1.159ZM36.417 35.31h.22l.175.698.004-.003a.665.665 0 0 1 .01-.175l.08-.52h.23l-.183 1.158h-.217l-.172-.7-.003.004-.008.117-.006.047-.084.532h-.23l.184-1.159ZM37.29 35.31h.23l-.119.75a.13.13 0 0 0-.003.02l-.007.044a.511.511 0 0 0-.003.044.135.135 0 0 0 .003.044c.003.01.007.022.014.034.006.012.015.02.028.025a.124.124 0 0 0 .047.008.14.14 0 0 0 .094-.034.104.104 0 0 0 .023-.04.547.547 0 0 0 .024-.097l.126-.799h.229l-.134.846a.429.429 0 0 1-.06.182.318.318 0 0 1-.116.106.408.408 0 0 1-.095.031.592.592 0 0 1-.125.012c-.11 0-.19-.026-.24-.078-.051-.052-.068-.132-.05-.238l.135-.86ZM38.188 35.31h.301l.005.683h.003l.2-.684h.307l-.062 1.159h-.235l.077-.834h-.003l-.081.285-.186.549h-.177l-.025-.555.004-.258.003-.021h-.004l-.165.834h-.246l.284-1.159ZM32.195 34.852l.482-1.1a.328.328 0 0 0-.29-.457h-.014v-.375h.014a.705.705 0 0 1 .635.983l-.248.57h.429v.38h-1.008ZM34.378 34.891a.992.992 0 1 1-.004-1.985.992.992 0 0 1 .004 1.985Zm0-1.601a.612.612 0 0 0-.613.61.612.612 0 0 0 1.223 0 .61.61 0 0 0-.61-.61ZM36.558 34.891a.992.992 0 1 1-.003-1.985.992.992 0 0 1 .003 1.985Zm0-1.601a.612.612 0 0 0-.613.61.612.612 0 0 0 1.223 0 .61.61 0 0 0-.61-.61ZM38.404 34.891a.646.646 0 0 1-.429-1.128.535.535 0 1 1 .858 0 .647.647 0 0 1-.429 1.128Zm0-.913a.267.267 0 0 0-.267.267c0 .15.12.27.267.27.148 0 .268-.12.268-.27a.267.267 0 0 0-.268-.267Zm0-.694a.158.158 0 0 0-.158.156.159.159 0 1 0 .317 0 .158.158 0 0 0-.159-.156Z"/></svg>