<?xml version="1.0" encoding="UTF-8" standalone="no"?>
<!DOCTYPE svg PUBLIC "-//W3C//DTD SVG 1.1//EN" "http://www.w3.org/Graphics/SVG/1.1/DTD/svg11.dtd">
<svg width="100%" height="100%" viewBox="0 0 143 179" version="1.1" xmlns="http://www.w3.org/2000/svg" xmlns:xlink="http://www.w3.org/1999/xlink" xml:space="preserve" xmlns:serif="http://www.serif.com/" style="fill-rule:evenodd;clip-rule:evenodd;stroke-linejoin:round;stroke-miterlimit:2;">
    <g id="Artboard2" transform="matrix(0.979452,0,0,0.752101,0,0)">
        <rect x="0" y="0" width="146" height="238" style="fill:none;"/>
        <clipPath id="_clip1">
            <rect x="0" y="0" width="146" height="238"/>
        </clipPath>
        <g clip-path="url(#_clip1)">
            <g id="Artboard1" transform="matrix(0.573319,0,0,1.142408,-27.519311,-45.115503)">
                <g transform="matrix(1,0,0,0.92437,0,2.722688)">
                    <rect x="48" y="36" width="260" height="277" style="fill-opacity:0;"/>
                </g>
                <g transform="matrix(1.780822,0,0,1.163866,-138.986301,-18.701681)">
                    <rect x="166" y="54" width="21" height="129"/>
                </g>
                <g transform="matrix(6.614481,0,0,0.189466,-1042.880626,208.495701)">
                    <rect x="166" y="54" width="21" height="129"/>
                </g>
                <g transform="matrix(3.137639,0,0,0.189466,-291.028112,208.414778)">
                    <rect x="166" y="54" width="21" height="129"/>
                </g>
            </g>
        </g>
    </g>
</svg>
